<mxfile host="app.diagrams.net" modified="2021-04-22T04:23:19.585Z" agent="5.0 (Windows)" etag="AJnI1RfgJrwk-Pi0uF9C" version="14.6.2" type="github">
  <diagram id="ac4kkEiAtTnAmGIBFqP-" name="Page-1">
    <mxGraphModel dx="716" dy="397" grid="1" gridSize="10" guides="1" tooltips="1" connect="1" arrows="1" fold="1" page="1" pageScale="1" pageWidth="850" pageHeight="1100" math="0" shadow="0">
      <root>
        <mxCell id="0" />
        <mxCell id="1" parent="0" />
        <mxCell id="eAFC2hTf22US64GkAHq2-1" style="edgeStyle=orthogonalEdgeStyle;rounded=0;orthogonalLoop=1;jettySize=auto;html=1;exitX=0.5;exitY=1;exitDx=0;exitDy=0;" parent="1" source="eAFC2hTf22US64GkAHq2-4" target="eAFC2hTf22US64GkAHq2-16" edge="1">
          <mxGeometry relative="1" as="geometry" />
        </mxCell>
        <mxCell id="eAFC2hTf22US64GkAHq2-2" style="edgeStyle=orthogonalEdgeStyle;rounded=0;orthogonalLoop=1;jettySize=auto;html=1;" parent="1" source="eAFC2hTf22US64GkAHq2-4" target="eAFC2hTf22US64GkAHq2-12" edge="1">
          <mxGeometry relative="1" as="geometry" />
        </mxCell>
        <mxCell id="eAFC2hTf22US64GkAHq2-3" style="edgeStyle=orthogonalEdgeStyle;rounded=0;orthogonalLoop=1;jettySize=auto;html=1;exitX=0;exitY=0.5;exitDx=0;exitDy=0;entryX=0.5;entryY=0;entryDx=0;entryDy=0;" parent="1" source="eAFC2hTf22US64GkAHq2-4" target="eAFC2hTf22US64GkAHq2-8" edge="1">
          <mxGeometry relative="1" as="geometry" />
        </mxCell>
        <mxCell id="eAFC2hTf22US64GkAHq2-4" value="Web Portal" style="rounded=1;whiteSpace=wrap;html=1;fontSize=12;glass=0;strokeWidth=1;shadow=0;" parent="1" vertex="1">
          <mxGeometry x="420" y="50" width="120" height="40" as="geometry" />
        </mxCell>
        <mxCell id="eAFC2hTf22US64GkAHq2-8" value="Schooly Store" style="rounded=1;whiteSpace=wrap;html=1;fontSize=12;glass=0;strokeWidth=1;shadow=0;" parent="1" vertex="1">
          <mxGeometry x="145" y="130" width="120" height="40" as="geometry" />
        </mxCell>
        <mxCell id="eAFC2hTf22US64GkAHq2-10" style="edgeStyle=orthogonalEdgeStyle;rounded=0;orthogonalLoop=1;jettySize=auto;html=1;exitX=0.5;exitY=1;exitDx=0;exitDy=0;entryX=0.5;entryY=0;entryDx=0;entryDy=0;" parent="1" source="eAFC2hTf22US64GkAHq2-12" target="eAFC2hTf22US64GkAHq2-23" edge="1">
          <mxGeometry relative="1" as="geometry" />
        </mxCell>
        <mxCell id="eAFC2hTf22US64GkAHq2-11" style="edgeStyle=orthogonalEdgeStyle;rounded=0;orthogonalLoop=1;jettySize=auto;html=1;exitX=0.5;exitY=1;exitDx=0;exitDy=0;" parent="1" source="eAFC2hTf22US64GkAHq2-12" target="eAFC2hTf22US64GkAHq2-25" edge="1">
          <mxGeometry relative="1" as="geometry" />
        </mxCell>
        <mxCell id="eAFC2hTf22US64GkAHq2-12" value="E-Point" style="rounded=1;whiteSpace=wrap;html=1;fontSize=12;glass=0;strokeWidth=1;shadow=0;" parent="1" vertex="1">
          <mxGeometry x="590" y="140" width="90" height="40" as="geometry" />
        </mxCell>
        <mxCell id="eAFC2hTf22US64GkAHq2-13" style="edgeStyle=orthogonalEdgeStyle;rounded=0;orthogonalLoop=1;jettySize=auto;html=1;exitX=0.5;exitY=1;exitDx=0;exitDy=0;entryX=0.5;entryY=0;entryDx=0;entryDy=0;" parent="1" source="eAFC2hTf22US64GkAHq2-16" target="eAFC2hTf22US64GkAHq2-21" edge="1">
          <mxGeometry relative="1" as="geometry" />
        </mxCell>
        <mxCell id="eAFC2hTf22US64GkAHq2-14" style="edgeStyle=orthogonalEdgeStyle;rounded=0;orthogonalLoop=1;jettySize=auto;html=1;exitX=0.5;exitY=1;exitDx=0;exitDy=0;" parent="1" source="eAFC2hTf22US64GkAHq2-16" target="eAFC2hTf22US64GkAHq2-20" edge="1">
          <mxGeometry relative="1" as="geometry" />
        </mxCell>
        <mxCell id="eAFC2hTf22US64GkAHq2-15" style="edgeStyle=orthogonalEdgeStyle;rounded=0;orthogonalLoop=1;jettySize=auto;html=1;exitX=0.5;exitY=1;exitDx=0;exitDy=0;entryX=0.5;entryY=0;entryDx=0;entryDy=0;" parent="1" source="eAFC2hTf22US64GkAHq2-16" target="eAFC2hTf22US64GkAHq2-22" edge="1">
          <mxGeometry relative="1" as="geometry" />
        </mxCell>
        <mxCell id="eAFC2hTf22US64GkAHq2-16" value="Absensi" style="rounded=1;whiteSpace=wrap;html=1;fontSize=12;glass=0;strokeWidth=1;shadow=0;" parent="1" vertex="1">
          <mxGeometry x="420" y="140" width="120" height="40" as="geometry" />
        </mxCell>
        <mxCell id="eAFC2hTf22US64GkAHq2-17" value="Seller" style="rounded=1;whiteSpace=wrap;html=1;fontSize=12;glass=0;strokeWidth=1;shadow=0;" parent="1" vertex="1">
          <mxGeometry x="180" y="330" width="50" height="40" as="geometry" />
        </mxCell>
        <mxCell id="eAFC2hTf22US64GkAHq2-18" value="Pembeli" style="rounded=1;whiteSpace=wrap;html=1;fontSize=12;glass=0;strokeWidth=1;shadow=0;" parent="1" vertex="1">
          <mxGeometry x="280" y="330" width="60" height="40" as="geometry" />
        </mxCell>
        <mxCell id="eAFC2hTf22US64GkAHq2-19" value="Admin" style="rounded=1;whiteSpace=wrap;html=1;fontSize=12;glass=0;strokeWidth=1;shadow=0;" parent="1" vertex="1">
          <mxGeometry x="50" y="330" width="50" height="40" as="geometry" />
        </mxCell>
        <mxCell id="eAFC2hTf22US64GkAHq2-20" value="Guru" style="rounded=1;whiteSpace=wrap;html=1;fontSize=12;glass=0;strokeWidth=1;shadow=0;" parent="1" vertex="1">
          <mxGeometry x="460" y="240" width="40" height="40" as="geometry" />
        </mxCell>
        <mxCell id="eAFC2hTf22US64GkAHq2-21" value="Admin" style="rounded=1;whiteSpace=wrap;html=1;fontSize=12;glass=0;strokeWidth=1;shadow=0;" parent="1" vertex="1">
          <mxGeometry x="400" y="240" width="50" height="40" as="geometry" />
        </mxCell>
        <mxCell id="eAFC2hTf22US64GkAHq2-22" value="Murid" style="rounded=1;whiteSpace=wrap;html=1;fontSize=12;glass=0;strokeWidth=1;shadow=0;" parent="1" vertex="1">
          <mxGeometry x="510" y="240" width="50" height="40" as="geometry" />
        </mxCell>
        <mxCell id="eAFC2hTf22US64GkAHq2-23" value="Guru" style="rounded=1;whiteSpace=wrap;html=1;fontSize=12;glass=0;strokeWidth=1;shadow=0;" parent="1" vertex="1">
          <mxGeometry x="580" y="240" width="50" height="40" as="geometry" />
        </mxCell>
        <mxCell id="eAFC2hTf22US64GkAHq2-25" value="Murid" style="rounded=1;whiteSpace=wrap;html=1;fontSize=12;glass=0;strokeWidth=1;shadow=0;" parent="1" vertex="1">
          <mxGeometry x="640" y="240" width="50" height="40" as="geometry" />
        </mxCell>
        <mxCell id="jP8lEYEgEvds1s-bmUfY-1" value="Login dengan Akun Schooly " style="text;html=1;align=center;verticalAlign=middle;resizable=0;points=[];autosize=1;strokeColor=none;" vertex="1" parent="1">
          <mxGeometry x="550" y="40" width="160" height="20" as="geometry" />
        </mxCell>
        <mxCell id="jP8lEYEgEvds1s-bmUfY-2" value="Fitur Kewirausahaan Schooly" style="text;html=1;align=center;verticalAlign=middle;resizable=0;points=[];autosize=1;strokeColor=none;" vertex="1" parent="1">
          <mxGeometry x="120" y="205" width="170" height="20" as="geometry" />
        </mxCell>
        <mxCell id="jP8lEYEgEvds1s-bmUfY-3" value="Fitur kehadiran via online" style="text;html=1;align=center;verticalAlign=middle;resizable=0;points=[];autosize=1;strokeColor=none;" vertex="1" parent="1">
          <mxGeometry x="405" y="180" width="140" height="20" as="geometry" />
        </mxCell>
        <mxCell id="jP8lEYEgEvds1s-bmUfY-4" value="Fitur penilaian terhadap siswa" style="text;html=1;align=center;verticalAlign=middle;resizable=0;points=[];autosize=1;strokeColor=none;" vertex="1" parent="1">
          <mxGeometry x="675" y="150" width="170" height="20" as="geometry" />
        </mxCell>
        <mxCell id="jP8lEYEgEvds1s-bmUfY-5" value="&lt;div&gt;Fitur ini dijalankan baik siswa maupun guru&lt;/div&gt;&lt;div&gt;untuk menjalankan misi dari SMKN 7 Semarang &lt;br&gt;&lt;/div&gt;&lt;div&gt;dalam pembangunan karakter&lt;br&gt;&lt;/div&gt;" style="text;html=1;align=center;verticalAlign=middle;resizable=0;points=[];autosize=1;strokeColor=none;" vertex="1" parent="1">
          <mxGeometry x="645" y="170" width="260" height="50" as="geometry" />
        </mxCell>
        <mxCell id="jP8lEYEgEvds1s-bmUfY-6" value="&lt;div&gt;Membantu baik siswa atau guru dalam melakukan presensi&lt;/div&gt;&lt;div&gt;secara mandiri dan online&lt;br&gt;&lt;/div&gt;" style="text;html=1;align=center;verticalAlign=middle;resizable=0;points=[];autosize=1;strokeColor=none;" vertex="1" parent="1">
          <mxGeometry x="325" y="200" width="320" height="30" as="geometry" />
        </mxCell>
        <mxCell id="jP8lEYEgEvds1s-bmUfY-7" value="&lt;div style=&quot;font-size: 11px&quot;&gt;&lt;font style=&quot;font-size: 11px&quot;&gt;Digunakan seluruh warga sekolah &lt;br&gt;&lt;/font&gt;&lt;/div&gt;&lt;div style=&quot;font-size: 11px&quot;&gt;&lt;font style=&quot;font-size: 11px&quot;&gt;untuk berlatih berwirausaha dengan &lt;br&gt;&lt;/font&gt;&lt;/div&gt;&lt;div style=&quot;font-size: 11px&quot;&gt;&lt;font style=&quot;font-size: 11px&quot;&gt;memasarkan produk mereka secara &lt;br&gt;&lt;/font&gt;&lt;/div&gt;&lt;div style=&quot;font-size: 11px&quot;&gt;&lt;font style=&quot;font-size: 11px&quot;&gt;online di lingkup sekolah&lt;br&gt;&lt;/font&gt;&lt;/div&gt;" style="text;html=1;align=center;verticalAlign=middle;resizable=0;points=[];autosize=1;strokeColor=none;" vertex="1" parent="1">
          <mxGeometry x="105" y="240" width="200" height="60" as="geometry" />
        </mxCell>
        <mxCell id="jP8lEYEgEvds1s-bmUfY-8" value="Admin" style="text;html=1;align=center;verticalAlign=middle;resizable=0;points=[];autosize=1;strokeColor=none;" vertex="1" parent="1">
          <mxGeometry x="60" y="305" width="50" height="20" as="geometry" />
        </mxCell>
        <mxCell id="jP8lEYEgEvds1s-bmUfY-12" value="" style="endArrow=none;html=1;strokeColor=#000000;entryX=0.5;entryY=1;entryDx=0;entryDy=0;" edge="1" parent="1" source="jP8lEYEgEvds1s-bmUfY-2" target="eAFC2hTf22US64GkAHq2-8">
          <mxGeometry width="50" height="50" relative="1" as="geometry">
            <mxPoint x="240" y="210" as="sourcePoint" />
            <mxPoint x="290" y="160" as="targetPoint" />
          </mxGeometry>
        </mxCell>
      </root>
    </mxGraphModel>
  </diagram>
</mxfile>
